HIERARCHY
ROOT Hips
{
	OFFSET 0.000000 0.000000 0.000000
	CHANNELS 6 Xposition Yposition Zposition Zrotation Yrotation Xrotation 
	JOINT LHipJoint
	{
		OFFSET 0.000000 0.000000 0.000000
		CHANNELS 3 Zrotation Yrotation Xrotation
		JOINT LeftUpLeg
		{
			OFFSET 1.363060 -1.794630 0.839290
			CHANNELS 3 Zrotation Yrotation Xrotation
			JOINT LeftLeg
			{
				OFFSET 2.448110 -6.726130 0.000000
				CHANNELS 3 Zrotation Yrotation Xrotation
				JOINT LeftFoot
				{
					OFFSET 2.562200 -7.039590 0.000000
					CHANNELS 3 Zrotation Yrotation Xrotation
					JOINT LeftToeBase
					{
						OFFSET 0.157640 -0.433110 2.322550
						CHANNELS 3 Zrotation Yrotation Xrotation
						End Site
						{
							OFFSET 0.000000 0.000000 0.000000
						}
					}
				}
			}
		}
	}
	JOINT RHipJoint
	{
		OFFSET 0.000000 0.000000 0.000000
		CHANNELS 3 Zrotation Yrotation Xrotation
		JOINT RightUpLeg
		{
			OFFSET -1.305520 -1.794630 0.839290
			CHANNELS 3 Zrotation Yrotation Xrotation
			JOINT RightLeg
			{
				OFFSET -2.542530 -6.985550 0.000000
				CHANNELS 3 Zrotation Yrotation Xrotation
				JOINT RightFoot
				{
					OFFSET -2.568260 -7.056230 0.000000
					CHANNELS 3 Zrotation Yrotation Xrotation
					JOINT RightToeBase
					{
						OFFSET -0.164730 -0.452590 2.363150
						CHANNELS 3 Zrotation Yrotation Xrotation
						End Site
						{
							OFFSET 0.000000 0.000000 0.000000
						}
					}
				}
			}
		}
	}
	JOINT LowerBack
	{
		OFFSET 0.000000 0.000000 0.000000
		CHANNELS 3 Zrotation Yrotation Xrotation
		JOINT Spine
		{
			OFFSET 0.028270 2.035590 -0.193380
			CHANNELS 3 Zrotation Yrotation Xrotation
			JOINT Spine1
			{
				OFFSET 0.056720 2.048850 -0.042750
				CHANNELS 3 Zrotation Yrotation Xrotation
				JOINT Neck
				{
					OFFSET 0.000000 0.000000 0.000000
					CHANNELS 3 Zrotation Yrotation Xrotation
					JOINT Neck1
					{
						OFFSET -0.054170 1.746240 0.172020
						CHANNELS 3 Zrotation Yrotation Xrotation
						JOINT Head
						{
							OFFSET 0.104070 1.761360 -0.123970
							CHANNELS 3 Zrotation Yrotation Xrotation
							End Site
							{
								OFFSET 0.000000 0.000000 0.000000
							}
						}
					}
				}
				JOINT LeftShoulder
				{
					OFFSET 0.000000 0.000000 0.000000
					CHANNELS 3 Zrotation Yrotation Xrotation
					JOINT LeftArm
					{
						OFFSET 3.362410 1.200890 -0.311210
						CHANNELS 3 Zrotation Yrotation Xrotation
						JOINT LeftForeArm
						{
							OFFSET 4.983000 -0.000000 -0.000000
							CHANNELS 3 Zrotation Yrotation Xrotation
							JOINT LeftHand
							{
								OFFSET 3.483560 -0.000000 -0.000000
								CHANNELS 3 Zrotation Yrotation Xrotation
								JOINT LeftFingerBase
								{
									OFFSET 0.000000 0.000000 0.000000
									CHANNELS 3 Zrotation Yrotation Xrotation
									JOINT LeftHandIndex1
									{
										OFFSET 0.715260 -0.000000 -0.000000
										CHANNELS 3 Zrotation Yrotation Xrotation
										End Site
										{
											OFFSET 0.000000 0.000000 0.000000
										}
									}
								}
								JOINT LThumb
								{
									OFFSET 0.000000 0.000000 0.000000
									CHANNELS 3 Zrotation Yrotation Xrotation
									End Site
									{
										OFFSET 0.000000 0.000000 0.000000
									}
								}
							}
						}
					}
				}
				JOINT RightShoulder
				{
					OFFSET 0.000000 0.000000 0.000000
					CHANNELS 3 Zrotation Yrotation Xrotation
					JOINT RightArm
					{
						OFFSET -3.136600 1.374050 -0.404650
						CHANNELS 3 Zrotation Yrotation Xrotation
						JOINT RightForeArm
						{
							OFFSET -5.241900 -0.000000 -0.000000
							CHANNELS 3 Zrotation Yrotation Xrotation
							JOINT RightHand
							{
								OFFSET -3.444170 -0.000000 -0.000000
								CHANNELS 3 Zrotation Yrotation Xrotation
								JOINT RightFingerBase
								{
									OFFSET 0.000000 0.000000 0.000000
									CHANNELS 3 Zrotation Yrotation Xrotation
									JOINT RightHandIndex1
									{
										OFFSET -0.622530 -0.000000 -0.000000
										CHANNELS 3 Zrotation Yrotation Xrotation
										End Site
										{
											OFFSET 0.000000 0.000000 0.000000
										}
									}
								}
								JOINT RThumb
								{
									OFFSET 0.000000 0.000000 0.000000
									CHANNELS 3 Zrotation Yrotation Xrotation
									End Site
									{
										OFFSET 0.000000 0.000000 0.000000
									}
								}
							}
						}
					}
				}
			}
		}
	}
}
MOTION
Frames: 9
Frame Time: 0.008333
4.764379 17.383811 1.245059 -124.487767 87.150486 -116.807760 5.128857 -0.195679 -1.615458 -18.868533 -24.173284 -10.164288 -0.312775 10.806580 28.896651 -0.495902 9.244504 -16.440837 2.172800 -9.217100 -26.476800 -10.026503 -2.382179 -1.139615 32.656789 24.498279 2.774621 2.602076 -6.709205 19.198803 2.761331 -31.924641 -34.758271 -0.721900 -5.429100 15.136700 1.319417 0.921121 4.143583 1.180434 1.569214 -3.855270 -0.553645 0.232774 -1.159265 -0.246077 -1.520774 -17.065290 6.080263 -1.937601 16.769520 0.702600 0.142300 14.635300 3.174535 -0.864795 -0.194402 -55.896145 19.750646 54.843842 84.267111 -57.738272 -57.239947 0.876716 -0.216099 -51.370046 -36.774323 65.639290 -34.696100 -7.125000 0.000000 0.000000 -87.599900 -63.494200 117.196900 -3.484517 0.878526 -1.563225 41.865296 -19.616617 60.834788 -72.521655 59.069949 -45.830822 -0.753842 -0.814569 -36.792052 58.513195 10.068155 16.690100 7.125000 0.000000 0.000000 43.934600 11.459200 78.875900 
4.783777 17.386186 1.231797 -122.370802 87.123832 -114.600625 5.182031 -0.167557 -1.619581 -18.872087 -24.028186 -10.216393 -0.316829 10.794788 28.865369 -0.480735 9.147076 -16.428707 2.155600 -9.182800 -26.368900 -9.969389 -2.349081 -1.140806 32.620009 24.561614 2.768049 2.607890 -6.698117 19.161987 2.755815 -31.926451 -34.803096 -0.725200 -5.441200 15.171500 1.353527 0.850327 4.134602 1.207711 1.467273 -3.848074 -0.489636 0.183853 -1.110251 -0.262244 -1.410423 -17.232285 6.082748 -1.789085 16.662112 0.706500 0.191600 14.605300 3.170326 -0.847351 -0.216243 -57.126752 20.416221 56.166522 75.028654 -56.794459 -48.904728 0.888979 -0.435552 -46.149338 -30.863780 65.695272 -28.991200 -7.125000 0.000000 0.000000 -88.260700 -64.812900 116.113900 -3.447875 0.860074 -1.541021 42.580429 -19.720891 60.632728 -65.023026 57.735310 -39.543232 -0.794877 -0.744548 -32.564893 56.328973 9.758676 14.957900 7.125000 0.000000 0.000000 42.948100 6.186500 72.768700 
4.805353 17.389056 1.219128 -119.459156 87.139862 -111.600051 5.251841 -0.125030 -1.622561 -18.919218 -23.815610 -10.287223 -0.315808 10.792939 28.861944 -0.457739 9.015318 -16.437868 2.150800 -9.173400 -26.339100 -9.886619 -2.300081 -1.143962 32.524731 24.660726 2.789856 2.613375 -6.673514 19.099874 2.696414 -31.805154 -34.935656 -0.824700 -5.793900 16.187700 1.350243 0.789485 4.150887 1.223028 1.376240 -3.841791 -0.447406 0.143890 -1.093084 -0.228679 -1.257751 -17.386091 6.082775 -1.598146 16.566458 0.704400 0.265700 14.582700 3.162412 -0.835195 -0.263844 -58.538195 21.228783 55.748729 66.241000 -55.380394 -41.090424 0.877193 -0.621307 -42.536923 -27.639886 65.908943 -25.921100 -7.125000 0.000000 0.000000 -89.436700 -65.632800 116.311800 -3.410169 0.849575 -1.523111 43.396494 -19.918653 59.670330 -58.082936 56.011619 -33.817086 -0.822101 -0.668744 -28.474395 52.893983 9.534587 12.930800 7.125000 0.000000 0.000000 42.171800 -0.669800 64.315700 
4.825939 17.387473 1.205272 -115.619216 87.171513 -107.688375 5.344430 -0.063046 -1.618395 -19.015571 -23.660811 -10.309345 -0.320016 10.789387 28.849804 -0.442215 8.953128 -16.494624 2.128700 -9.129100 -26.199900 -9.799284 -2.234708 -1.157724 32.453613 24.774498 2.827384 2.618180 -6.664487 19.080370 2.799260 -32.034706 -34.787115 -0.708500 -5.379800 14.995000 1.355960 0.753562 4.210171 1.220289 1.317607 -3.834535 -0.467128 0.124222 -1.099111 -0.112140 -1.097323 -17.557319 6.058711 -1.425674 16.487608 0.670000 0.342000 14.581200 3.145213 -0.824304 -0.320019 -60.057848 22.118156 54.413836 58.063274 -53.463840 -34.028537 0.811601 -0.805271 -39.183559 -20.493028 65.578456 -19.058100 -7.125000 0.000000 0.000000 -89.755800 -67.197900 114.595000 -3.368332 0.844834 -1.515443 44.257149 -20.134759 58.164040 -51.714356 53.940828 -28.675710 -0.814826 -0.588831 -25.111888 47.428676 9.285389 10.413800 7.125000 0.000000 0.000000 41.615900 -8.465500 53.152600 
4.846624 17.385394 1.189536 -109.889127 87.178927 -101.903552 5.467915 0.042618 -1.597952 -19.119353 -23.529398 -10.300716 -0.328720 10.786104 28.828516 -0.434073 8.944559 -16.575323 2.099600 -9.070500 -26.016200 -9.685218 -2.125945 -1.188286 32.400635 24.913763 2.883080 2.618046 -6.664061 19.093978 2.922978 -32.307037 -34.600905 -0.565400 -4.815800 13.384000 1.426889 0.759946 4.276847 1.208149 1.311204 -3.832816 -0.528719 0.138956 -1.147055 -0.014548 -0.984606 -17.620190 6.029102 -1.312540 16.405889 0.629600 0.391900 14.549900 3.118890 -0.803714 -0.372357 -61.735852 22.980424 51.784784 51.151782 -51.240852 -28.289689 0.713982 -0.973703 -36.925076 -10.976270 65.461510 -10.090400 -7.125000 0.000000 0.000000 -91.844100 -69.469600 113.948200 -3.319217 0.848568 -1.516474 44.995219 -20.294757 56.517783 -45.924997 51.567478 -24.126217 -0.760547 -0.496073 -23.143373 39.997791 8.357799 7.254400 7.125000 0.000000 0.000000 40.647400 -15.310500 41.087200 
4.869288 17.385493 1.172612 -102.897604 87.215337 -94.861574 5.590172 0.184522 -1.558874 -19.270635 -23.367073 -10.308605 -0.339220 10.793123 28.815112 -0.426586 8.944056 -16.659158 2.078400 -9.027500 -25.881200 -9.568466 -1.980951 -1.239690 32.285900 25.062916 2.955040 2.614979 -6.653915 19.101822 3.033438 -32.534932 -34.416112 -0.475600 -4.422800 12.269400 1.445902 0.798661 4.318386 1.195647 1.339662 -3.832572 -0.561203 0.180561 -1.209502 0.033381 -0.887030 -17.574209 5.992796 -1.199836 16.320595 0.593600 0.435200 14.484400 3.089451 -0.771527 -0.417038 -63.563442 23.812605 48.226038 45.325895 -48.831359 -23.657807 0.589244 -1.146399 -34.714142 -0.004584 65.281867 0.144600 -7.125000 0.000000 0.000000 -96.016600 -72.155000 114.979800 -3.264451 0.856537 -1.523785 45.722189 -20.480699 54.523573 -40.912224 49.056563 -20.314146 -0.658536 -0.374709 -22.295591 31.242824 6.394396 4.018700 7.125000 0.000000 0.000000 38.398100 -20.638000 29.981100 
4.893140 17.387473 1.155589 -94.529308 87.199346 -86.436351 5.694787 0.362528 -1.494411 -19.389337 -23.321755 -10.298268 -0.357632 10.807486 28.791482 -0.434730 9.054208 -16.790621 2.044900 -8.958900 -25.666800 -9.475304 -1.795440 -1.318097 32.212720 25.215594 3.038514 2.610449 -6.640502 19.116743 3.148904 -32.773430 -34.223394 -0.396300 -4.042100 11.195000 1.440210 0.871589 4.313906 1.189876 1.406722 -3.828910 -0.554621 0.249332 -1.236857 0.031810 -0.850862 -17.575412 5.972722 -1.152218 16.286145 0.575400 0.450600 14.466500 3.051696 -0.724202 -0.456929 -65.367452 24.476778 43.942092 40.306139 -46.279108 -19.849416 0.452976 -1.329811 -33.088121 12.451344 64.789162 11.717100 -7.125000 0.000000 0.000000 -103.622400 -75.140600 118.988500 -3.210179 0.876008 -1.537296 46.514423 -20.706688 52.019247 -36.732661 46.562967 -17.246284 -0.491642 -0.186847 -22.168464 20.425212 2.787557 1.058200 7.125000 0.000000 0.000000 34.015200 -25.848000 19.242600 
4.916794 17.388363 1.139555 -84.555995 87.113553 -76.407860 5.758387 0.575839 -1.397584 -19.471758 -23.464620 -10.231357 -0.386775 10.831996 28.760685 -0.467020 9.352473 -17.030449 1.999500 -8.865100 -25.374100 -9.426537 -1.569523 -1.425691 32.205350 25.392511 3.177560 2.604434 -6.614778 19.126938 3.230885 -32.945211 -34.098664 -0.335500 -3.722200 10.296500 1.408997 0.997291 4.298923 1.177019 1.540847 -3.830882 -0.567866 0.360983 -1.280295 0.029893 -0.877873 -17.557311 5.936927 -1.191121 16.268507 0.541100 0.430000 14.456800 3.004841 -0.667213 -0.493848 -67.022186 24.885542 39.238912 35.815620 -43.540414 -16.583984 0.336803 -1.498166 -31.808832 22.492783 64.034256 21.055500 -7.125000 0.000000 0.000000 -113.165700 -77.362200 125.527800 -3.156487 0.905821 -1.549013 47.280897 -20.900477 49.331742 -33.174471 44.105072 -14.707852 -0.273130 0.036281 -22.780735 8.925499 -1.172570 -0.211700 7.125000 0.000000 0.000000 27.538100 -30.398600 10.995700 
4.941438 17.387473 1.123423 -75.610630 87.021706 -67.391674 5.759598 0.759037 -1.300432 -19.553376 -23.601781 -10.195619 -0.413612 10.864843 28.747474 -0.502476 9.670252 -17.274116 1.971100 -8.805600 -25.189100 -9.437746 -1.373904 -1.527877 32.185845 25.558547 3.321998 2.601380 -6.577905 19.112861 3.305963 -33.101302 -33.989900 -0.273400 -3.363200 9.291700 1.350347 1.136293 4.246305 1.142526 1.699912 -3.846195 -0.664794 0.482300 -1.364491 0.043410 -0.917012 -17.357188 5.911523 -1.255806 16.190258 0.505700 0.399100 14.352200 2.955933 -0.615231 -0.521430 -68.482728 25.038218 34.109853 32.173854 -40.949903 -14.044012 0.247300 -1.623505 -31.596143 29.666604 62.493801 27.608900 -7.125000 0.000000 0.000000 -120.782700 -79.248600 130.574900 -3.110621 0.928567 -1.553957 48.142556 -21.091831 46.229602 -30.048682 41.670947 -12.540609 -0.021450 0.246389 -23.690005 -2.535297 -4.007916 0.193500 7.125000 0.000000 0.000000 19.470600 -33.698000 5.678700 
